<svg width="13" height="18" viewBox="0 0 13 18" fill="none" xmlns="http://www.w3.org/2000/svg">
<path d="M3.53608 0.911133C3.82491 0.911133 4.09104 1.11188 4.23127 1.43551L5.20387 3.68067C5.33121 3.97464 5.33722 4.3302 5.21986 4.63094L4.28287 7.03246C4.28287 7.03246 4.55441 8.82142 5.69081 10.2777C6.82726 11.734 8.21858 12.076 8.21858 12.076L10.0923 10.8754C10.3271 10.7249 10.6048 10.7327 10.8343 10.8962L12.5912 12.148C12.8436 12.3278 13 12.6686 13 13.0386V15.6234C13 16.9397 12.0459 17.8904 11.0726 17.4696C9.07367 16.6052 5.97078 14.9595 4.0041 12.4392C2.03741 9.91893 0.753165 5.94264 0.0786766 3.38105C-0.249722 2.13381 0.492174 0.911133 1.51934 0.911133H3.53608Z" fill="#2EB872"/>
</svg>
