<svg width="19" height="14" viewBox="0 0 19 14" fill="none" xmlns="http://www.w3.org/2000/svg">
<path d="M3.11782 0.602642C5.7971 0.469094 7.88104 0.402344 9.3696 0.402344C10.8583 0.402344 12.943 0.469142 15.6236 0.602691C17.0747 0.674999 18.2483 1.8098 18.3693 3.25756C18.4919 4.72403 18.5532 6.01563 18.5532 7.13235C18.5532 8.2628 18.4904 9.57238 18.3648 11.0612C18.2441 12.491 17.096 13.6176 15.6642 13.7112C13.3724 13.8611 11.2742 13.936 9.3696 13.936C7.46522 13.936 5.36779 13.8611 3.07731 13.7113C1.64597 13.6177 0.498112 12.4917 0.376879 11.0625C0.249648 9.56261 0.186035 8.25255 0.186035 7.13235C0.186035 6.02563 0.248131 4.7336 0.372317 3.25621C0.49397 1.80902 1.66734 0.674951 3.11782 0.602642Z" fill="#2EB872"/>
<path d="M7.57129 5.29811V9.55006C7.57129 9.77882 7.7568 9.96433 7.98556 9.96433C8.06681 9.96433 8.14628 9.94045 8.21404 9.89565L11.403 7.78802C11.5938 7.66187 11.6463 7.40482 11.5201 7.21395C11.49 7.16832 11.4511 7.12908 11.4057 7.09858L8.21675 4.95431C8.02689 4.82666 7.76946 4.87707 7.64176 5.06698C7.59584 5.13532 7.57129 5.2158 7.57129 5.29811Z" fill="black"/>
</svg>
