<svg width="15" height="15" viewBox="0 0 15 15" fill="none" xmlns="http://www.w3.org/2000/svg">
<path d="M0.32373 11.8696C1.03594 12.3097 6.19149 15.6313 9.8575 13.0713C13.5235 10.5113 13.3212 6.10079 13.3212 4.07977C13.6533 3.30219 14.3549 2.90689 14.3549 0.802169C13.6658 1.51363 12.9808 1.75571 12.3001 1.52841C11.6331 0.391869 10.7155 -0.110818 9.54715 0.0203607C7.79469 0.217127 7.15354 2.13872 7.34223 4.62479C4.64012 6.152 2.52127 3.51769 1.4293 1.52841C1.06445 3.09507 0.712652 4.97595 1.4293 7.05664C1.90707 8.44375 3.05556 9.61646 4.87477 10.5748C3.03112 11.6916 1.5141 12.1232 0.32373 11.8696Z" fill="#2EB872"/>
</svg>
