<svg width="39" height="29" viewBox="0 0 39 29" fill="none" xmlns="http://www.w3.org/2000/svg">
<path d="M6.45402 1.24601C11.9916 0.969992 16.2988 0.832031 19.3754 0.832031C22.4523 0.832031 26.7609 0.970092 32.3014 1.24611C35.3004 1.39556 37.7261 3.741 37.9762 6.73328C38.2296 9.76422 38.3562 12.4337 38.3562 14.7418C38.3562 17.0782 38.2265 19.7849 37.9668 22.862C37.7175 25.8171 35.3446 28.1457 32.3852 28.3392C27.6485 28.649 23.3119 28.8038 19.3754 28.8038C15.4394 28.8038 11.1043 28.649 6.3703 28.3394C3.41197 28.1459 1.03954 25.8187 0.788974 22.8648C0.526009 19.7647 0.394531 17.0571 0.394531 14.7418C0.394531 12.4544 0.522872 9.784 0.779543 6.73048C1.03098 3.7394 3.45613 1.39546 6.45402 1.24601Z" fill="#2EB872"/>
<path d="M15.6582 10.9481V19.7362C15.6582 20.209 16.0416 20.5924 16.5144 20.5924C16.6824 20.5924 16.8466 20.5431 16.9867 20.4505L23.5776 16.0943C23.9721 15.8336 24.0805 15.3023 23.8198 14.9078C23.7574 14.8135 23.677 14.7324 23.5832 14.6694L16.9923 10.2376C16.5999 9.97372 16.0678 10.0779 15.8039 10.4704C15.709 10.6117 15.6582 10.778 15.6582 10.9481Z" fill="black"/>
</svg>
